<svg width="103" height="102" viewBox="0 0 103 102" fill="none" xmlns="http://www.w3.org/2000/svg">
<g id="clarity:clock-line" clip-path="url(#clip0_134_309)">
<path id="Vector" d="M51.5 5.66669C42.5339 5.66669 33.7692 8.32544 26.3141 13.3067C18.8591 18.288 13.0486 25.3681 9.61744 33.6517C6.18627 41.9353 5.28852 51.0503 7.03771 59.8441C8.78691 68.6379 13.1045 76.7155 19.4445 83.0555C25.7845 89.3955 33.8621 93.7131 42.6559 95.4623C51.4497 97.2115 60.5647 96.3137 68.8483 92.8826C77.1319 89.4514 84.212 83.6409 89.1933 76.1859C94.1746 68.7308 96.8333 59.9661 96.8333 51C96.8333 38.9769 92.0571 27.4462 83.5555 18.9445C75.0538 10.4429 63.5231 5.66669 51.5 5.66669ZM51.5 90.6667C43.6547 90.6667 35.9855 88.3403 29.4624 83.9817C22.9392 79.623 17.855 73.4279 14.8528 66.1798C11.8505 58.9317 11.0649 50.956 12.5955 43.2614C14.126 35.5669 17.9039 28.4989 23.4514 22.9515C28.9989 17.404 36.0668 13.6261 43.7614 12.0955C51.456 10.565 59.4316 11.3505 66.6798 14.3528C73.9279 17.3551 80.123 22.4393 84.4816 28.9624C88.8402 35.4855 91.1666 43.1547 91.1666 51C91.1666 61.5203 86.9875 71.6096 79.5485 79.0486C72.1096 86.4875 62.0202 90.6667 51.5 90.6667Z" fill="#F39C12"/>
<path id="Vector_2" d="M54.1067 52.1333V30.4583C54.1067 29.7069 53.8082 28.9862 53.2768 28.4549C52.7455 27.9235 52.0248 27.625 51.2733 27.625C50.5219 27.625 49.8012 27.9235 49.2699 28.4549C48.7385 28.9862 48.44 29.7069 48.44 30.4583V55.165L65.1567 66.4983C65.4646 66.7299 65.8165 66.8963 66.191 66.9873C66.5654 67.0782 66.9544 67.0919 67.3343 67.0273C67.7142 66.9628 68.0769 66.8215 68.4003 66.612C68.7236 66.4025 69.0009 66.1292 69.2151 65.8089C69.4292 65.4886 69.5758 65.128 69.6459 64.7491C69.7159 64.3702 69.708 63.981 69.6225 63.6053C69.537 63.2296 69.3758 62.8753 69.1487 62.564C68.9216 62.2528 68.6334 61.9911 68.3017 61.795L54.1067 52.1333Z" fill="#F39C12"/>
<path id="Vector_3" d="M23.1667 50.83C23.1407 45.7329 24.4986 40.7244 27.0954 36.3384C29.6923 31.9524 33.4308 28.3533 37.9123 25.925C42.3938 23.4967 47.4503 22.3301 52.5427 22.5496C57.6351 22.7692 62.5724 24.3666 66.8283 27.1717L69.2367 23.3183C65.1941 20.6703 60.6153 18.9504 55.8292 18.2823C51.043 17.6142 46.1682 18.0144 41.5551 19.4542C36.942 20.894 32.705 23.3376 29.1485 26.6095C25.592 29.8814 22.8043 33.9004 20.9857 38.3777C19.167 42.855 18.3626 47.6796 18.6301 52.5047C18.8976 57.3299 20.2305 62.036 22.533 66.2848C24.8354 70.5336 28.0503 74.2198 31.9467 77.0784C35.8431 79.9371 40.3243 81.8973 45.0683 82.8183L45.8333 78.4833C39.4526 77.1809 33.7153 73.7202 29.587 68.6837C25.4587 63.6471 23.1914 57.3422 23.1667 50.83Z" fill="#F39C12"/>
</g>
<defs>
<clipPath id="clip0_134_309">
<rect width="102" height="102" fill="white" transform="translate(0.5)"/>
</clipPath>
</defs>
</svg>
