<svg width="24" height="24" viewBox="0 0 24 24" fill="none" xmlns="http://www.w3.org/2000/svg">
<g id="social_email">
<rect width="24" height="24" rx="12" fill="white"/>
<g id="mail">
<mask id="mask0_317_247" style="mask-type:alpha" maskUnits="userSpaceOnUse" x="4" y="4" width="16" height="16">
<rect id="Bounding box" x="4" y="4" width="16" height="16" fill="#D9D9D9"/>
</mask>
<g mask="url(#mask0_317_247)">
<path id="mail_2" d="M6.8 16.8C6.47778 16.8 6.19722 16.6805 5.95833 16.4416C5.71944 16.2027 5.6 15.9222 5.6 15.6V8.39995C5.6 8.07773 5.71944 7.79717 5.95833 7.55828C6.19722 7.3194 6.47778 7.19995 6.8 7.19995H17.2C17.5333 7.19995 17.8167 7.3194 18.05 7.55828C18.2833 7.79717 18.4 8.07773 18.4 8.39995V15.6C18.4 15.9222 18.2833 16.2027 18.05 16.4416C17.8167 16.6805 17.5333 16.8 17.2 16.8H6.8ZM12 12.8L17.2 9.81662V8.39995L12 11.3833L6.8 8.39995V9.81662L12 12.8Z" fill="#1F4788"/>
</g>
</g>
</g>
</svg>
