<svg width="24" height="24" viewBox="0 0 24 24" fill="none" xmlns="http://www.w3.org/2000/svg">
<g id="social_message">
<rect width="24" height="24" rx="12" fill="white"/>
<g id="perm_phone_msg">
<mask id="mask0_317_253" style="mask-type:alpha" maskUnits="userSpaceOnUse" x="4" y="5" width="16" height="16">
<rect id="Bounding box" x="4" y="5" width="16" height="16" fill="#D9D9D9"/>
</mask>
<g mask="url(#mask0_317_253)">
<path id="perm_phone_msg_2" d="M12 12.9833V7.9833C12 7.81663 12.0583 7.67497 12.175 7.5583C12.2917 7.44163 12.4333 7.3833 12.6 7.3833H17C17.1667 7.3833 17.3083 7.44163 17.425 7.5583C17.5417 7.67497 17.6 7.81663 17.6 7.9833V10.7833C17.6 10.95 17.5417 11.0916 17.425 11.2083C17.3083 11.325 17.1667 11.3833 17 11.3833H13.6L12 12.9833ZM16.7167 18.5833C15.3722 18.4833 14.0972 18.1527 12.8917 17.5916C11.6861 17.0305 10.6056 16.2722 9.65 15.3166C8.69444 14.3611 7.93889 13.2805 7.38333 12.075C6.82778 10.8694 6.5 9.59441 6.4 8.24997C6.37778 8.01663 6.44722 7.81386 6.60833 7.64163C6.76944 7.46941 6.96667 7.3833 7.2 7.3833H9.46667C9.65555 7.3833 9.81944 7.44163 9.95833 7.5583C10.0972 7.67497 10.1889 7.82219 10.2333 7.99997L10.6333 9.7833C10.6556 9.92775 10.6472 10.0666 10.6083 10.2C10.5694 10.3333 10.5056 10.4444 10.4167 10.5333L8.8 12.1666C9.02222 12.5889 9.27778 12.9944 9.56667 13.3833C9.85555 13.7722 10.1778 14.1389 10.5333 14.4833C10.8667 14.8166 11.2222 15.125 11.6 15.4083C11.9778 15.6916 12.3778 15.9444 12.8 16.1666L14.45 14.5666C14.5389 14.4777 14.65 14.4139 14.7833 14.375C14.9167 14.3361 15.0556 14.3277 15.2 14.35L16.9833 14.7333C17.1722 14.7889 17.3222 14.8861 17.4333 15.025C17.5444 15.1639 17.6 15.3277 17.6 15.5166V17.7833C17.6 18.0166 17.5111 18.2139 17.3333 18.375C17.1556 18.5361 16.95 18.6055 16.7167 18.5833Z" fill="#1F4788"/>
</g>
</g>
</g>
</svg>
