<svg width="24" height="24" viewBox="0 0 24 24" fill="none" xmlns="http://www.w3.org/2000/svg">
<g id="social_location">
<rect width="24" height="24" rx="12" fill="white"/>
<g id="location_on">
<mask id="mask0_317_241" style="mask-type:alpha" maskUnits="userSpaceOnUse" x="4" y="4" width="16" height="16">
<rect id="Bounding box" x="4" y="4" width="16" height="16" fill="#D9D9D9"/>
</mask>
<g mask="url(#mask0_317_241)">
<path id="location_on_2" d="M12 11.9999C12.3667 11.9999 12.6806 11.8694 12.9417 11.6083C13.2028 11.3471 13.3333 11.0333 13.3333 10.6666C13.3333 10.2999 13.2028 9.98603 12.9417 9.72492C12.6806 9.46381 12.3667 9.33325 12 9.33325C11.6333 9.33325 11.3194 9.46381 11.0583 9.72492C10.7972 9.98603 10.6667 10.2999 10.6667 10.6666C10.6667 11.0333 10.7972 11.3471 11.0583 11.6083C11.3194 11.8694 11.6333 11.9999 12 11.9999ZM12 18.6666C10.2111 17.1444 8.875 15.7305 7.99166 14.4249C7.10833 13.1194 6.66666 11.911 6.66666 10.7999C6.66666 9.13325 7.20278 7.80547 8.275 6.81659C9.34722 5.8277 10.5889 5.33325 12 5.33325C13.4111 5.33325 14.6528 5.8277 15.725 6.81659C16.7972 7.80547 17.3333 9.13325 17.3333 10.7999C17.3333 11.911 16.8917 13.1194 16.0083 14.4249C15.125 15.7305 13.7889 17.1444 12 18.6666Z" fill="#1F4788"/>
</g>
</g>
</g>
</svg>
