<svg width="117" height="116" viewBox="0 0 117 116" fill="none" xmlns="http://www.w3.org/2000/svg">
<g id="solar:hand-stars-broken">
<g id="Group">
<path id="Vector" d="M52.9949 16.2545C55.4454 11.861 56.6682 9.66666 58.5 9.66666C60.3319 9.66666 61.5547 11.861 64.0052 16.2545L64.6335 17.3903C65.3344 18.6422 65.6824 19.2657 66.2237 19.6765C66.765 20.0873 67.4417 20.242 68.795 20.5465L70.0227 20.8268C74.7787 21.8998 77.1567 22.4412 77.7222 24.2585C78.2877 26.0758 76.6685 27.9753 73.4254 31.7647L72.5844 32.7458C71.666 33.8237 71.2069 34.3602 70.999 35.0272C70.7912 35.6942 70.8589 36.4143 70.999 37.8498L71.1247 39.1548C71.6177 44.2153 71.8594 46.7432 70.3804 47.8693C68.9014 48.9955 66.6732 47.966 62.2217 45.9167L61.0665 45.385C59.805 44.805 59.1719 44.515 58.5 44.515C57.8282 44.515 57.195 44.805 55.9335 45.385L54.7784 45.9167C50.3317 47.9708 48.0987 48.9955 46.6197 47.8693C45.1407 46.7432 45.3824 44.2153 45.8754 39.1597L46.001 37.8498C46.1412 36.4143 46.2089 35.6942 46.001 35.0272C45.7932 34.3602 45.334 33.8188 44.4157 32.7458L43.5747 31.7647C40.3364 27.9753 38.7124 26.0758 39.2779 24.2585C39.8434 22.4412 42.2214 21.8998 46.9774 20.8268L48.205 20.5465C49.5584 20.242 50.235 20.0873 50.7764 19.6765C51.3177 19.2657 51.6657 18.6422 52.3617 17.3903L52.9949 16.2545ZM94.4117 37.1297C95.6394 34.9305 96.2484 33.8333 97.1667 33.8333C98.085 33.8333 98.694 34.9305 99.9217 37.1297L100.236 37.6952C100.584 38.3235 100.758 38.6328 101.029 38.8407C101.299 39.0437 101.638 39.121 102.314 39.2757L102.928 39.411C105.306 39.9523 106.495 40.2182 106.775 41.1317C107.061 42.0403 106.249 42.9877 104.629 44.8823L104.209 45.3705C103.75 45.9118 103.518 46.1825 103.416 46.516C103.31 46.8447 103.349 47.2072 103.416 47.9273L103.479 48.5798C103.721 51.1077 103.846 52.374 103.107 52.9347C102.367 53.4953 101.256 52.983 99.0275 51.9583L98.4475 51.6925C97.8192 51.4025 97.5002 51.2575 97.1667 51.2575C96.8284 51.2575 96.5142 51.4025 95.881 51.6925L95.3059 51.9583C93.0825 52.983 91.9709 53.4953 91.2265 52.9347C90.487 52.374 90.6079 51.1077 90.8544 48.5798L90.9172 47.9273C90.9849 47.2023 91.0235 46.8447 90.9172 46.516C90.8157 46.1777 90.5837 45.9118 90.1245 45.3705L89.704 44.8823C88.0849 42.9877 87.2729 42.0403 87.558 41.1317C87.8384 40.2182 89.0274 39.9523 91.4054 39.411L92.0192 39.2757C92.6959 39.121 93.0342 39.0437 93.3049 38.8407C93.5755 38.6328 93.7495 38.3187 94.0975 37.6952L94.4117 37.1297ZM17.0784 37.1297C18.3109 34.9305 18.915 33.8333 19.8334 33.8333C20.7517 33.8333 21.3607 34.9305 22.5884 37.1297L22.9025 37.6952C23.2505 38.3235 23.4245 38.6328 23.6952 38.8407C23.9659 39.0437 24.3042 39.121 24.9809 39.2757L25.5947 39.411C27.9727 39.9523 29.1617 40.2182 29.4469 41.1317C29.7272 42.0403 28.9152 42.9877 27.296 44.8823L26.8755 45.3705C26.4164 45.9118 26.1844 46.1825 26.0829 46.516C25.9765 46.8447 26.0152 47.2072 26.0829 47.9273L26.1457 48.5798C26.3874 51.1077 26.513 52.374 25.7735 52.9347C25.034 53.4953 23.9175 52.983 21.6942 51.9583L21.1142 51.6925C20.4859 51.4025 20.1669 51.2575 19.8334 51.2575C19.495 51.2575 19.1809 51.4025 18.5477 51.6925L17.9725 51.9583C15.7492 52.983 14.6375 53.4953 13.8932 52.9347C13.1537 52.374 13.2745 51.1077 13.521 48.5798L13.5839 47.9273C13.6515 47.2023 13.6902 46.8447 13.5839 46.516C13.4824 46.1777 13.2504 45.9118 12.7912 45.3705L12.3707 44.8823C10.7515 42.9877 9.93953 42.0403 10.2199 41.1317C10.505 40.2182 11.694 39.9523 14.072 39.411L14.6859 39.2757C15.3625 39.121 15.7009 39.0437 15.9715 38.8407C16.2422 38.6328 16.4162 38.3187 16.7642 37.6952L17.0784 37.1297Z" stroke="#F39C12" stroke-width="4"/>
<path id="Vector_2" d="M19.8334 103.375H30.7567C35.6384 103.375 40.5829 103.888 45.334 104.864C53.8165 106.607 62.5444 106.8 71.0957 105.434M66.6007 89.4988C67.1807 89.4312 67.7365 89.3538 68.2682 89.2717C72.6714 88.5708 76.3689 86.2122 79.7522 83.6553L88.4909 77.0578C90.0499 75.9238 91.9281 75.313 93.8559 75.313C95.7837 75.313 97.6619 75.9238 99.2209 77.0578C101.99 79.1507 102.841 82.5968 101.087 85.4098C99.042 88.6868 96.1614 92.8773 93.3967 95.439M66.6007 89.4988C66.4236 89.5194 66.2464 89.5387 66.069 89.5568M66.6007 89.4988C67.3743 89.2896 68.0836 88.8909 68.6645 88.3388C69.3929 87.7087 69.9876 86.9392 70.4137 86.0755C70.8397 85.2118 71.0885 84.2715 71.1453 83.3102C71.202 82.3488 71.0656 81.3858 70.7442 80.478C70.4227 79.5701 69.9227 78.7359 69.2735 78.0245C68.6437 77.3253 67.9101 76.727 67.0985 76.2507C53.5797 68.1838 32.5402 74.327 19.8334 83.3412M66.6007 89.4988C66.426 89.5369 66.2478 89.5563 66.069 89.5568M66.069 89.5568C63.1541 89.8498 60.2175 89.8563 57.3014 89.5762" stroke="#F39C12" stroke-width="4" stroke-linecap="round"/>
</g>
</g>
</svg>
