<svg width="107" height="106" viewBox="0 0 107 106" fill="none" xmlns="http://www.w3.org/2000/svg">
<g id="solar:hanger-2-bold">
<path id="Vector" fill-rule="evenodd" clip-rule="evenodd" d="M45.9298 17.2691C45.9298 14.7605 48.306 12.1458 51.9983 12.1458C55.6907 12.1458 58.0668 14.7605 58.0668 17.2691C58.0668 18.6427 57.5722 19.8352 56.7683 20.7141C56.2227 21.2944 55.6631 21.8614 55.09 22.4146L54.7367 22.7679C53.9229 23.5556 53.1434 24.3778 52.4002 25.2324C51.2298 26.6104 49.9578 28.4256 49.4941 30.6649C46.6771 31.1298 43.9999 32.2194 41.6589 33.8537L10.3227 55.9017C6.22843 58.7814 5.17284 63.4189 6.66568 67.3056C8.13201 71.1304 11.9392 73.9791 16.8505 73.9791H27.0442C27 75.5824 27 77.4109 27 79.5C27 87.8298 27 91.9903 29.5926 94.5785C32.1675 97.1666 36.3368 97.1666 44.6667 97.1666H62.3333C70.6587 97.1666 74.8237 97.1666 77.4118 94.5785C80 91.9903 80 87.8298 80 79.5C80 77.4109 80 75.5824 79.9558 73.9791H90.1451C95.1138 73.9791 98.9342 71.0774 100.374 67.2084C101.832 63.2731 100.696 58.6047 96.5007 55.7781L63.6716 33.6506C61.5176 32.2057 59.0923 31.2139 56.5431 30.7356C56.7639 30.3778 57.0642 29.9759 57.4485 29.5254C58.005 28.8673 58.6587 28.2092 59.3918 27.4761L59.7231 27.1581C60.3414 26.5397 61.026 25.8684 61.6443 25.1926C63.6009 23.0726 64.6918 20.2681 64.6918 17.2647C64.6918 10.4542 58.6675 5.52081 51.9983 5.52081C45.3292 5.52081 39.3048 10.4542 39.3048 17.2691C39.3048 18.1477 39.6538 18.9902 40.275 19.6114C40.8963 20.2327 41.7388 20.5816 42.6173 20.5816C43.4959 20.5816 44.3384 20.2327 44.9596 19.6114C45.5808 18.9902 45.9298 18.1477 45.9298 17.2691ZM79.1476 67.3541H90.1451C92.3932 67.3541 93.7049 66.1307 94.1642 64.9029C94.5927 63.7369 94.3718 62.3324 92.7951 61.2724L59.9704 39.1449C57.8058 37.7108 55.2571 36.967 52.6608 37.0116C50.0911 37.0247 47.5851 37.8128 45.4705 39.273L14.1343 61.3166C12.6061 62.3898 12.4073 63.7811 12.8534 64.9338C13.3172 66.1484 14.6333 67.3541 16.8505 67.3541H27.848C28.2323 66.1749 28.7843 65.2209 29.5882 64.4215C32.1675 61.8333 36.3368 61.8333 44.6667 61.8333H62.3333C70.6587 61.8333 74.8237 61.8333 77.4118 64.4215C78.2113 65.2209 78.7678 66.1749 79.1476 67.3541Z" fill="#F39C12"/>
</g>
</svg>
