<svg width="107" height="106" viewBox="0 0 107 106" fill="none" xmlns="http://www.w3.org/2000/svg">
<g id="tabler:truck">
<g id="Group">
<path id="Vector" d="M22.5833 75.0833C22.5833 77.4261 23.514 79.6729 25.1706 81.3295C26.8271 82.986 29.0739 83.9167 31.4167 83.9167C33.7594 83.9167 36.0062 82.986 37.6628 81.3295C39.3194 79.6729 40.25 77.4261 40.25 75.0833C40.25 72.7406 39.3194 70.4938 37.6628 68.8372C36.0062 67.1807 33.7594 66.25 31.4167 66.25C29.0739 66.25 26.8271 67.1807 25.1706 68.8372C23.514 70.4938 22.5833 72.7406 22.5833 75.0833ZM66.75 75.0833C66.75 77.4261 67.6807 79.6729 69.3372 81.3295C70.9938 82.986 73.2406 83.9167 75.5834 83.9167C77.9261 83.9167 80.1729 82.986 81.8295 81.3295C83.486 79.6729 84.4167 77.4261 84.4167 75.0833C84.4167 72.7406 83.486 70.4938 81.8295 68.8372C80.1729 67.1807 77.9261 66.25 75.5834 66.25C73.2406 66.25 70.9938 67.1807 69.3372 68.8372C67.6807 70.4938 66.75 72.7406 66.75 75.0833Z" stroke="#F39C12" stroke-width="6" stroke-linecap="round" stroke-linejoin="round"/>
<path id="Vector_2" d="M22.5833 75.0833H13.75V26.5C13.75 25.3286 14.2153 24.2052 15.0436 23.3769C15.8719 22.5486 16.9953 22.0833 18.1667 22.0833H57.9167V75.0833M40.25 75.0833H66.75M84.4167 75.0833H93.25V48.5833M93.25 48.5833H57.9167M93.25 48.5833L80 26.5H57.9167" stroke="#F39C12" stroke-width="6" stroke-linecap="round" stroke-linejoin="round"/>
</g>
</g>
</svg>
